<?xml version="1.0" standalone="no"?>
<!DOCTYPE svg PUBLIC "-//W3C//DTD SVG 20010904//EN"
 "http://www.w3.org/TR/2001/REC-SVG-20010904/DTD/svg10.dtd">
<svg version="1.0" xmlns="http://www.w3.org/2000/svg"
 width="72.000000pt" height="72.000000pt" viewBox="0 0 72.000000 72.000000"
 preserveAspectRatio="xMidYMid meet">

<g transform="translate(0.000000,72.000000) scale(0.100000,-0.100000)"
fill="#000000" stroke="none">
<path d="M21 571 c12 -35 28 -49 66 -61 l28 -8 -32 -1 c-33 -1 -39 -7 -25 -27
13 -20 46 -31 87 -28 29 1 35 0 20 -6 -11 -5 -33 -9 -50 -9 l-29 -1 20 -20
c22 -23 46 -27 84 -16 l25 7 -23 -20 -23 -20 25 -7 c15 -3 36 -4 47 -1 17 5
18 3 8 -10 -11 -13 -9 -15 11 -13 46 4 54 1 41 -14 -10 -11 -9 -16 4 -24 16
-8 16 -11 0 -42 -15 -29 -15 -32 -1 -27 12 5 16 0 16 -16 1 -21 1 -22 15 -3
14 19 15 19 15 -7 0 -33 15 -35 25 -4 4 13 8 17 12 10 8 -20 26 -15 20 6 -3
15 0 17 17 13 20 -5 20 -4 5 14 -9 10 -20 29 -23 41 -6 18 -4 22 8 17 12 -5
16 0 14 17 -3 21 1 24 24 21 22 -3 27 0 22 12 -5 12 -2 15 10 10 9 -3 28 -3
43 1 l27 6 -30 25 -29 24 38 -15 c33 -14 40 -14 66 0 42 21 47 35 14 36 -15 0
-37 4 -48 9 -15 6 -6 9 32 9 42 1 55 5 68 24 15 22 15 22 -22 27 l-38 6 37 7
c28 6 42 16 53 37 24 46 18 52 -26 30 -23 -12 -43 -19 -46 -17 -2 3 5 8 16 12
12 3 21 10 21 15 0 5 -22 -1 -49 -13 -27 -12 -44 -25 -39 -28 11 -7 -82 -32
-99 -27 -5 2 -22 -12 -37 -29 -15 -18 -23 -33 -17 -33 6 0 20 15 31 33 11 17
20 27 20 21 0 -17 -40 -64 -55 -64 -17 0 -27 41 -13 57 8 10 7 13 -5 13 -8 0
-22 3 -31 6 -11 4 -19 -3 -26 -22 -25 -70 -22 -68 -53 -44 -15 12 -27 29 -27
38 1 11 6 8 16 -10 8 -16 21 -28 29 -28 9 0 4 10 -13 27 -28 28 -30 30 -59 32
-16 1 -16 3 -3 11 11 8 8 9 -12 4 -25 -5 -135 22 -125 32 2 2 18 -1 36 -7 54
-19 42 -5 -15 17 -36 15 -51 17 -43 8 15 -18 5 -18 -31 1 l-29 15 10 -29z"/>
<path d="M488 533 c7 -3 16 -2 19 1 4 3 -2 6 -13 5 -11 0 -14 -3 -6 -6z"/>
</g>
</svg>
